<svg width="51" height="55" viewBox="0 0 51 55" fill="none" xmlns="http://www.w3.org/2000/svg">
<path d="M23.913 0.0581144C20.598 0.293916 17.3106 1.22325 14.1203 2.81838C11.2838 4.24012 9.42512 5.57864 7.17807 7.81876C5.87423 9.11567 4.93103 10.26 3.96701 11.7095C1.82399 14.9552 0.665793 18.0623 0.124836 22.0362C0.0277414 22.7783 0 23.4302 0 25.1918C0 27.2863 0.0138707 27.4804 0.201125 28.6941C1.05417 34.2008 3.22493 38.5492 6.99776 42.3221C8.10048 43.4178 9.18932 44.3333 11.686 46.2405C12.3518 46.7537 13.3852 47.5444 13.9747 48.009C14.5642 48.4668 15.8681 49.4724 16.8737 50.2283C17.8793 50.9912 19.204 51.9969 19.8212 52.4685C22.5399 54.5283 23.5385 54.9929 25.314 54.9999C26.5623 55.0068 27.4431 54.7502 28.6291 54.0358C29.3157 53.6197 33.0538 50.8248 37.5895 47.3224C38.4287 46.6775 39.4759 45.8591 39.9129 45.5123C40.3498 45.1656 41.0988 44.5691 41.5774 44.1877C42.576 43.404 44.9341 41.0737 45.6276 40.2068C48.2283 36.9264 49.8581 33.0079 50.5378 28.4167C50.6765 27.4735 50.6973 27.0713 50.6973 25.1918C50.6973 23.5134 50.6696 22.8268 50.5725 22.0709C50.0731 18.2356 48.8178 14.8096 46.8343 11.8482C43.1933 6.42475 38.0265 2.69354 31.6598 0.89729C29.8566 0.384075 28.3794 0.141338 26.5623 0.0511791C25.1545 -0.0181743 25.0019 -0.0181743 23.913 0.0581144ZM27.9147 3.19982C29.0868 3.38014 30.2034 3.64368 31.4656 4.05287C32.818 4.48286 33.7057 4.85043 35.0928 5.54397C36.3481 6.16815 36.4938 6.25831 37.6936 7.06281C40.5371 8.97696 42.6038 11.12 44.5318 14.1646C45.9605 16.4116 46.9939 19.2343 47.4377 22.1056C47.5903 23.0904 47.6458 25.5039 47.5487 26.9048C47.4377 28.4791 46.9869 31.0383 46.8135 31.1007C46.7372 31.1215 46.0853 30.1089 46.0853 29.9633C46.0853 29.8662 46.2518 29.8038 46.5084 29.8038C46.7719 29.8038 47.0008 29.5749 46.973 29.3322L46.9522 29.1449L45.8287 29.1102C44.7745 29.0756 44.6983 29.0686 44.5387 28.9161C44.3307 28.7149 44.185 28.389 44.2405 28.2433C44.2683 28.1601 44.407 28.1393 44.8855 28.1393C45.4057 28.1393 45.5097 28.1185 45.6484 27.9867C45.7386 27.9035 45.8079 27.7787 45.8079 27.7024C45.8079 27.6261 45.4403 27.0158 44.9965 26.343C44.5179 25.6287 44.185 25.0531 44.1781 24.949C44.1781 24.7757 44.1781 24.7757 44.9895 24.741C45.6484 24.7132 45.8218 24.6855 45.9397 24.5745C46.2171 24.3249 46.1408 24.1168 45.2253 22.6951C44.2891 21.2456 44.1434 20.989 44.1434 20.8225C44.1434 20.7116 44.2544 20.6977 44.9965 20.7185C45.3571 20.7254 45.4126 20.7046 45.6068 20.5104C45.8634 20.2608 45.8495 20.1082 45.5166 19.5742C45.2808 19.1996 44.185 17.3271 43.9909 16.9873C43.8244 16.6752 43.5678 16.5295 43.2765 16.585C43.0268 16.6336 42.9159 16.7861 41.8964 18.5685C41.7577 18.8182 41.5011 19.2343 41.3277 19.5048C41.1612 19.7683 41.0225 20.0527 41.0225 20.1359C41.0225 20.2261 41.1058 20.3925 41.2098 20.5104C41.3901 20.7324 41.404 20.7324 41.8409 20.6977C42.2848 20.6561 42.5483 20.7185 42.5483 20.8711C42.5483 20.9127 42.2293 21.4259 41.8478 22.0085C41.3069 22.8268 41.1543 23.1112 41.189 23.2291C41.2098 23.3192 41.4941 23.7007 41.827 24.0821C42.153 24.4636 42.6107 24.9976 42.8465 25.275C43.1239 25.601 43.3389 25.7882 43.4638 25.816C43.8868 25.9131 44.0741 26.4609 43.7828 26.7314C43.6371 26.8701 43.5331 26.884 42.3541 26.8979L41.0919 26.9187L40.9185 26.7453C40.8214 26.6551 40.7174 26.4748 40.6827 26.35C40.6133 26.1142 40.6064 26.1142 40.974 25.8437C41.2583 25.6287 41.2167 25.4137 40.7659 24.741C39.9059 23.4718 38.8726 21.8767 38.8726 21.8212C38.8726 21.7935 38.9211 21.7172 38.9835 21.6617C39.0598 21.5785 39.2332 21.5507 39.6701 21.5507C40.1279 21.5507 40.2735 21.523 40.4053 21.419C40.7382 21.1554 40.655 20.9612 39.4759 19.1996C38.8795 18.3119 38.3871 17.5421 38.3871 17.4936C38.3871 17.3687 38.6576 17.0428 38.7685 17.0428C38.8934 17.0428 39.261 17.4658 39.9198 18.3605C40.225 18.7766 40.5371 19.1372 40.6203 19.165C40.8145 19.2274 41.1196 18.9847 41.1474 18.7489C41.1682 18.6101 41.0572 18.409 40.6896 17.9235C40.1071 17.1537 40.003 16.9734 40.1487 16.9734C40.2042 16.9734 40.3429 16.8902 40.4608 16.7931C40.7174 16.5781 40.7451 16.2799 40.5371 15.9678C40.329 15.6626 38.935 13.3393 38.6368 12.7914C38.4911 12.5348 38.3108 12.2782 38.2276 12.2227C38.0473 12.0979 37.6242 12.084 37.4716 12.2019C37.4092 12.2504 37.0416 12.8399 36.6533 13.5057C36.2649 14.1715 35.7378 15.0454 35.4881 15.4407C34.9541 16.2799 34.9056 16.5365 35.2246 16.807C35.391 16.9595 35.4812 16.9734 36.0638 16.9734C36.681 16.9734 36.7226 16.9803 36.8266 17.1399C36.9584 17.341 36.9792 17.2924 36.2926 18.3397C34.753 20.6769 34.6351 20.8919 34.7252 21.1415C34.8431 21.4883 35.0096 21.5507 35.8349 21.5507C36.5631 21.5507 36.5908 21.5577 36.6671 21.7172C36.7573 21.9183 36.8266 21.8004 35.4951 23.777C34.4201 25.3721 34.3646 25.5108 34.6767 25.8229C34.8431 25.9893 34.8848 25.9963 35.5505 25.9755C36.1747 25.9547 36.2579 25.9685 36.3481 26.0864C36.4036 26.1627 36.4452 26.2598 36.4452 26.3014C36.4452 26.35 36.2094 26.7384 35.9251 27.1684C35.6407 27.5983 35.4049 27.9798 35.4049 28.0075C35.4049 28.1185 36.5978 29.5125 38.4911 31.607C39.58 32.8137 42.0906 35.6433 42.361 35.9624C42.5622 36.212 42.6107 36.5796 42.4651 36.7252C42.4165 36.7738 42.2015 36.8085 41.9796 36.8085H41.5843L40.9393 36.0664C40.5856 35.6572 40.01 35.0122 39.6632 34.6238C39.3234 34.2424 38.3386 33.1327 37.4855 32.1618C35.6546 30.0812 35.2523 29.6235 32.2424 26.2251C30.9871 24.8103 29.6763 23.3262 29.3226 22.9239C28.9204 22.4593 28.6221 22.1749 28.5042 22.1472C28.2199 22.0778 27.8384 22.2928 27.6789 22.6188L27.5472 22.8892L27.4154 22.7228C27.0825 22.2928 26.4583 21.3219 26.4583 21.2248C26.4583 21.1623 26.5069 21.0514 26.5762 20.982C26.6733 20.878 26.7981 20.8572 27.5056 20.8572C28.3031 20.8572 28.3239 20.8503 28.4626 20.6769C28.5459 20.5728 28.6083 20.4064 28.6083 20.3093C28.6083 20.1845 28.2338 19.5395 27.5472 18.4576C26.9646 17.549 26.2433 16.4047 25.9382 15.9123C25.633 15.4268 25.3279 15.0107 25.2585 14.9899C25.0782 14.9344 24.8909 15.1286 24.4124 15.8776C24.1905 16.2313 23.7951 16.8486 23.5385 17.2508C22.0266 19.6158 21.6729 20.2053 21.6729 20.3717C21.6729 20.4757 21.7353 20.6214 21.8116 20.7046C21.9434 20.8433 22.0266 20.8572 22.7132 20.8572C23.386 20.8572 23.49 20.8711 23.6148 20.9959C23.6911 21.0722 23.7535 21.1693 23.7535 21.2109C23.7535 21.2941 22.6855 22.8823 22.0682 23.7146C21.777 24.1099 21.6244 24.2555 21.5134 24.2555C21.4302 24.2555 20.9309 24.3249 20.4038 24.4081C19.3496 24.5815 19.3149 24.5745 19.0583 24.1862C18.8711 23.9157 18.8641 23.8186 19.0098 23.6729C19.093 23.5897 19.2664 23.562 19.731 23.562C20.3136 23.562 20.3552 23.555 20.4662 23.3886C20.6534 23.1042 20.6604 23.125 19.2317 20.9612C19.0098 20.6214 18.8364 20.2954 18.8433 20.233C18.8641 20.1498 19.0028 20.122 19.516 20.0943C20.0917 20.0666 20.1749 20.0388 20.2997 19.8932C20.4662 19.6782 20.4246 19.4909 20.1194 19.0193C19.9946 18.8251 19.6062 18.1732 19.2456 17.5629C18.4688 16.2244 18.337 16.0718 17.9972 16.0718C17.6782 16.0718 17.5811 16.1758 17.0609 17.0774C16.839 17.4589 16.409 18.1593 16.1108 18.631C15.8126 19.1095 15.5698 19.5672 15.5698 19.6574C15.5698 19.7475 15.6461 19.9001 15.7432 19.9972C15.9027 20.1567 15.9513 20.1637 16.3258 20.122C16.8321 20.0666 17.0956 20.122 17.0956 20.2885C17.0887 20.3509 16.8737 20.7324 16.6101 21.1346C15.3271 23.0765 15.2716 23.2152 15.6253 23.4926C15.7918 23.6313 15.8681 23.6383 16.2772 23.5967C16.7974 23.5481 17.0263 23.6244 17.0263 23.8463C17.0263 23.9295 16.8529 24.2416 16.6379 24.5399C16.3535 24.949 16.2148 25.0877 16.0969 25.0877C15.7987 25.0877 14.0094 25.4415 13.9192 25.5247C13.8152 25.6079 12.4905 27.3348 12.2964 27.633L12.1785 27.8133L11.4572 26.6967C10.5348 25.2889 10.5556 25.3305 10.6457 25.1571C10.7151 25.0323 10.7914 25.0184 11.4849 25.0184C12.1993 25.0184 12.2547 25.0115 12.4143 24.845C12.5114 24.7549 12.5876 24.6023 12.5876 24.5121C12.5876 24.415 12.2964 23.8949 11.9218 23.3123C11.2352 22.2512 10.1533 20.5451 10.0632 20.3856C10.0354 20.337 10.0632 20.2191 10.1187 20.129C10.2296 19.9625 10.2574 19.9556 11.1104 19.9556C11.9149 19.9556 12.0051 19.9417 12.1507 19.803C12.442 19.5256 12.3796 19.3453 11.4364 17.9305C10.9509 17.2023 10.5556 16.5573 10.5486 16.4949C10.5417 16.4047 10.6596 16.377 11.2838 16.3492C11.9218 16.3215 12.0397 16.2937 12.1299 16.1758C12.331 15.9123 12.2547 15.7112 11.5196 14.5668C11.1243 13.9565 10.6249 13.152 10.4099 12.7845C9.97995 12.0632 9.82737 11.9383 9.44593 12.0077C9.14771 12.0632 9.1061 12.1117 8.5166 13.0896C8.24612 13.5265 7.77451 14.2825 7.46936 14.761C6.79663 15.8083 6.76196 15.9123 6.99082 16.1828C7.1642 16.3839 7.17114 16.3839 7.85774 16.3631C8.25999 16.3562 8.57208 16.377 8.59982 16.4116C8.62063 16.4533 8.21838 17.1121 7.69823 17.8819C7.10179 18.7697 6.76195 19.3453 6.76195 19.4563C6.76195 19.5534 6.83131 19.7059 6.91453 19.7961C7.05324 19.9487 7.11566 19.9556 7.91322 19.9556C8.81482 19.9556 8.98126 20.0111 8.98126 20.3093C8.98126 20.3787 8.46805 21.204 7.83693 22.1402C6.41519 24.2486 6.33196 24.4012 6.42906 24.6786C6.46374 24.7895 6.55389 24.9144 6.62325 24.949C6.6926 24.9907 7.07405 25.0184 7.46936 25.0184C8.49579 25.0184 8.57901 25.1502 8.01725 25.9131C6.90066 27.4319 6.32503 28.3196 6.32503 28.5138C6.32503 28.8883 6.52615 28.9715 7.47629 28.9715C8.15596 28.9715 8.33628 28.9923 8.44031 29.0894C8.50966 29.1519 8.56514 29.2351 8.56514 29.2836C8.56514 29.3738 7.26824 31.2879 7.18501 31.3157C7.11566 31.3365 4.82006 27.5498 4.82006 27.418C4.82006 27.3972 4.88248 27.3764 4.9657 27.3764C5.16683 27.3764 5.37489 27.2516 5.37489 27.1267C5.37489 27.0019 4.9449 26.1974 4.70216 25.8645C4.50797 25.601 4.41088 25.5871 4.21669 25.7952C4.05024 25.9824 3.50235 27.0504 3.50235 27.1961C3.50235 27.3001 3.64799 27.3764 3.85605 27.3764C3.9254 27.3764 3.98782 27.418 3.98782 27.4666C3.98782 27.5914 3.43993 28.4445 3.39138 28.3959C3.16945 28.1809 3.00994 24.6578 3.14864 23.2499C3.32896 21.4814 3.59944 20.1082 4.07104 18.6379C5.45811 14.2756 8.91885 9.74678 12.9344 7.05587C16.3119 4.79495 19.6062 3.5882 23.8229 3.07499C24.3569 3.01257 27.2143 3.10273 27.9147 3.19982ZM30.0994 25.5385C30.9108 26.454 32.2563 27.9728 33.0885 28.9091C33.9277 29.8454 35.0096 31.0799 35.5089 31.6486C36.9654 33.32 38.3663 34.9013 39.254 35.8653L40.0863 36.7738L39.5384 36.7946C38.8379 36.8223 38.7477 36.7599 37.5618 35.5393C35.5714 33.4864 33.8236 31.3573 32.4296 29.2628C31.8471 28.3959 31.7153 28.2919 31.5072 28.5346C31.4518 28.604 31.2229 28.9577 31.001 29.3183C29.9191 31.066 28.3517 33.1258 26.923 34.6724C26.1532 35.5046 25.1406 36.4617 24.773 36.7044C24.6274 36.7946 24.2043 36.8085 21.3262 36.7946L18.0458 36.7738L18.3786 36.3646C18.559 36.1427 19.0306 35.5532 19.412 35.0469C20.813 33.2368 21.3262 32.5779 22.9282 30.532C23.8229 29.3877 24.9603 27.9243 25.4527 27.2793C25.952 26.6343 26.5901 25.809 26.8744 25.4415C27.1588 25.0739 27.5957 24.5052 27.8454 24.1792L28.2962 23.5758L28.4626 23.7284C28.5528 23.8047 29.2879 24.6231 30.0994 25.5385ZM25.7648 24.8519C25.7648 24.8728 25.6954 24.9907 25.6122 25.1086C25.3833 25.4345 22.519 29.1935 21.6383 30.3239C17.9487 35.0538 16.6517 36.7044 16.5755 36.753C16.5408 36.7807 16.0345 36.8085 15.4519 36.8085H14.4047L14.2937 36.5102C13.9955 35.6711 13.8013 34.5406 13.6834 32.9871C13.6349 32.3213 13.5586 31.7526 13.517 31.6902C13.4407 31.5862 13.4199 31.5862 13.302 31.6902C13.2257 31.7595 13.0939 31.9953 13.0038 32.2103C12.6431 33.0981 11.5959 34.929 10.8053 36.0595L10.2782 36.8085H6.60244L6.76889 36.6073C6.92147 36.4201 7.33759 35.893 9.39738 33.2714C10.8469 31.4266 11.8456 30.1297 13.1771 28.3682C14.3145 26.8563 14.5295 26.6135 14.7376 26.5511C15.0011 26.4748 16.4021 26.239 18.2399 25.9547C21.9018 25.3998 25.3279 24.8728 25.418 24.8519C25.6053 24.8103 25.7648 24.8103 25.7648 24.8519ZM39.4898 26.246C39.6077 26.3916 39.9475 26.8285 40.2527 27.2169C40.5579 27.6053 40.8699 27.959 40.9462 27.9937C41.0225 28.0353 41.3069 28.0699 41.5843 28.0699C41.9519 28.0699 42.1183 28.0977 42.2154 28.1878C42.4235 28.3751 42.3749 28.6594 42.0698 28.9923L41.7924 29.2906L42.2501 29.8731C43.3112 31.2463 43.4291 31.5654 43.0338 31.9676C42.8535 32.141 42.7841 32.1687 42.5968 32.1341C42.472 32.1063 42.3194 32.03 42.2501 31.9607C42.1252 31.8428 41.6259 31.0799 40.5717 29.4223C40.2804 28.9646 39.7464 28.1393 39.3858 27.5845C38.6923 26.5164 38.616 26.2876 38.8864 26.1003C39.1222 25.9339 39.2609 25.9685 39.4898 26.246ZM31.9719 31.17C32.18 32.2242 32.5684 33.5627 32.9012 34.395C33.1509 35.0192 33.7682 36.2744 33.9554 36.5449C34.0317 36.642 34.0872 36.7461 34.0872 36.7669C34.0872 36.7877 33.0261 36.8085 31.7292 36.8085C30.4323 36.8085 29.3712 36.7946 29.3712 36.7738C29.3712 36.753 29.4683 36.5865 29.5792 36.3993C29.8428 35.9762 30.4184 34.7625 30.6542 34.1314C30.9316 33.3893 31.3477 31.926 31.528 31.0313C31.6182 30.5875 31.7084 30.2199 31.7361 30.2199C31.7569 30.2199 31.8609 30.6499 31.9719 31.17ZM17.158 39.0971H7.44855L7.2821 38.9237C7.03243 38.681 7.03937 38.258 7.28904 38.0638C7.46936 37.9181 7.52484 37.9181 12.338 37.9181H17.1996L17.158 39.0971ZM43.5123 38.0915C43.7481 38.3273 43.7689 38.6255 43.5678 38.8613L43.3944 39.0625L18.2053 39.0971V37.9181L30.7929 37.932C43.2765 37.9528 43.3805 37.9528 43.5123 38.0915ZM39.6147 40.3802C39.9684 40.6298 39.9198 41.2124 39.5245 41.3719C39.3719 41.4343 35.9459 41.4551 25.1961 41.4413L11.0688 41.4205L10.9093 41.261C10.6874 41.046 10.6943 40.5882 10.9162 40.4079C11.0757 40.2761 11.4502 40.2761 25.2724 40.2761C37.7074 40.2761 39.4829 40.29 39.6147 40.3802ZM26.2849 43.5011C27.6997 43.8756 28.8302 45.1517 29.0313 46.622C29.2394 48.1269 28.3725 49.7567 27.0062 50.4295C24.8424 51.4906 22.311 50.2977 21.7076 47.9397C21.236 46.088 22.3734 44.153 24.3084 43.5288C24.7938 43.3693 25.7301 43.3624 26.2849 43.5011Z" fill="white"/>
<path d="M23.5247 5.10011C22.2624 5.43994 21.2499 6.05025 20.383 7.00039C18.7948 8.74116 18.3578 11.12 19.1831 13.478C19.4744 14.3033 20.0709 15.3852 21.132 17.022C21.6591 17.8265 21.7076 17.8819 21.7978 17.764C21.9642 17.5352 23.1918 15.6557 23.7674 14.7402C24.0726 14.2478 24.4193 13.7832 24.5372 13.6999C24.8493 13.478 25.5012 13.478 25.8064 13.693C25.9243 13.7832 26.4306 14.4767 26.9785 15.3228C28.4488 17.5907 28.636 17.8681 28.6984 17.8265C28.7262 17.8126 29.0036 17.4173 29.3157 16.9526C31.0564 14.3588 31.6321 12.9787 31.7084 11.2518C31.7361 10.5166 31.7222 10.3432 31.5627 9.72598C31.0564 7.76328 29.711 6.18202 27.9147 5.42607C27.027 5.05156 26.5554 4.96141 25.3833 4.93366C24.3361 4.90592 24.2321 4.91286 23.5247 5.10011ZM24.5164 7.54829C25.1822 7.88118 25.5429 8.46375 25.5498 9.21277C25.5706 10.5582 24.3569 11.4529 23.0115 11.0853C22.6161 10.9743 22.1723 10.6206 21.9157 10.2115C21.7284 9.9063 21.7076 9.82308 21.7076 9.28212C21.7076 8.60939 21.8324 8.2973 22.2416 7.89505C22.6508 7.4928 23.0184 7.34716 23.6564 7.34023C23.9963 7.33329 24.1627 7.3749 24.5164 7.54829ZM28.3586 8.07537C28.421 8.34585 28.4418 8.36666 28.6638 8.38746C29.1423 8.42907 29.1562 8.85907 28.6776 8.85907C28.4141 8.85907 28.4002 8.866 28.4002 9.081C28.4002 9.38615 28.317 9.49712 28.1159 9.46937C27.9772 9.4555 27.9494 9.40696 27.9286 9.15035C27.9078 8.85906 27.9009 8.85907 27.6443 8.85907C27.3391 8.85907 27.1865 8.72729 27.2559 8.5123C27.2906 8.40133 27.3599 8.37359 27.6096 8.37359C27.9078 8.37359 27.9147 8.36666 27.9147 8.14472C27.9147 7.67312 28.2615 7.61764 28.3586 8.07537ZM28.8441 12.1603C28.8649 12.2227 28.8857 12.3614 28.8857 12.4724C28.8857 12.6527 28.9065 12.6735 29.1145 12.6735C29.4128 12.6735 29.5237 12.7567 29.496 12.9578C29.4821 13.0966 29.4336 13.1243 29.1839 13.1451L28.8857 13.1659V13.478C28.8857 13.7693 28.8787 13.7832 28.6846 13.7832C28.4696 13.7832 28.4002 13.6861 28.4002 13.367C28.4002 13.1798 28.3794 13.1659 28.1159 13.1451C27.8038 13.1243 27.6512 12.9787 27.7275 12.7845C27.7622 12.7082 27.8593 12.6735 28.0881 12.6735H28.4002V12.41C28.4002 12.2643 28.421 12.1187 28.4488 12.0979C28.532 12.0077 28.8025 12.0493 28.8441 12.1603ZM21.8116 12.6666C21.8463 12.7429 21.881 12.8885 21.881 12.9856C21.881 13.1312 21.9087 13.1659 21.992 13.1312C22.0474 13.1104 22.1792 13.1104 22.2694 13.1312C22.4081 13.1659 22.4358 13.2145 22.4219 13.3601C22.4011 13.5127 22.3665 13.5404 22.1445 13.5612C21.9226 13.582 21.881 13.6098 21.881 13.7485C21.881 14.0606 21.7562 14.2825 21.5828 14.2548C21.451 14.234 21.4302 14.1854 21.4094 13.9011C21.3955 13.6999 21.3608 13.589 21.3192 13.6167C21.2776 13.6375 21.1389 13.6375 21.0071 13.6167C20.806 13.5751 20.7713 13.5404 20.7713 13.367C20.7713 13.1867 20.7991 13.1659 21.0834 13.1174C21.3816 13.0757 21.3955 13.0619 21.3955 12.8538C21.3955 12.729 21.4163 12.6041 21.4441 12.5833C21.5342 12.4862 21.7423 12.5348 21.8116 12.6666Z" fill="white"/>
<path d="M35.5575 8.38746C35.5089 8.43601 35.4743 8.56778 35.4743 8.68568C35.4743 9.00471 35.3425 9.14341 34.9888 9.18502C34.6143 9.23357 34.5033 9.30986 34.5033 9.51792C34.5033 9.73292 34.6143 9.8092 35.0096 9.86469C35.3702 9.92017 35.4743 10.0519 35.4743 10.4473C35.4743 10.6831 35.5922 10.801 35.828 10.801C36.0638 10.801 36.0915 10.7593 36.147 10.3085C36.1886 9.9271 36.3065 9.83001 36.7157 9.83001C36.9376 9.83001 37.0694 9.71904 37.0694 9.51792C37.0694 9.32373 36.9445 9.20583 36.7296 9.20583C36.2788 9.20583 36.2094 9.12261 36.0707 8.49149C36.036 8.34585 35.9875 8.30424 35.8349 8.30424C35.7309 8.30424 35.606 8.33891 35.5575 8.38746Z" fill="white"/>
<path d="M14.37 9.74678C14.3007 9.81614 14.2521 9.98952 14.2521 10.1213C14.2521 10.8495 14.0441 11.0645 13.2742 11.1269C12.7333 11.1755 12.5876 11.2656 12.5876 11.5569C12.5876 11.8343 12.6847 11.8898 13.2812 11.9453C13.5655 11.973 13.8568 12.0216 13.9192 12.0563C14.1134 12.1603 14.2521 12.5001 14.2521 12.8677C14.2521 13.3948 14.5989 13.6098 14.9318 13.2977C15.0566 13.1798 15.0844 13.0757 15.0844 12.7498C15.0844 12.4238 15.1121 12.3267 15.2439 12.2019C15.445 12.0146 15.7779 11.9106 16.1732 11.9106C16.3951 11.9106 16.4922 11.8759 16.5685 11.758C16.7142 11.55 16.7072 11.4113 16.5408 11.2309C16.4229 11.1061 16.3189 11.0784 15.9651 11.0784C15.341 11.0784 15.1537 10.9119 15.0913 10.3016C15.0636 10.0519 15.0011 9.79533 14.9526 9.73291C14.8278 9.58034 14.5087 9.59421 14.37 9.74678Z" fill="white"/>
<path d="M41.3624 13.152C41.2375 13.2491 41.1959 13.3532 41.1959 13.5751C41.1959 13.797 41.2375 13.9011 41.3624 13.9981C41.5912 14.1854 41.9311 14.1715 42.1322 13.9565C42.6107 13.4503 41.9033 12.7082 41.3624 13.152Z" fill="white"/>
<path d="M32.2701 16.2591C32.173 16.37 31.9927 16.6405 31.8679 16.8694C31.5627 17.4103 30.6403 18.943 30.4323 19.2482C30.2173 19.5742 30.2242 19.8377 30.46 20.025C30.6195 20.1498 30.7305 20.1706 31.105 20.1637C31.7777 20.1429 31.8679 20.1567 31.8679 20.2608C31.8679 20.3162 31.5697 20.8156 31.209 21.3773C30.8484 21.9391 30.5502 22.4385 30.5502 22.4939C30.5502 22.5841 30.7374 22.8199 31.9511 24.2208C32.6377 25.0184 32.6793 25.0531 32.9567 25.0739C33.2272 25.0947 33.2619 25.0739 33.3937 24.8658C33.5601 24.5884 33.567 24.3873 33.4214 24.1029C33.3382 23.9365 33.3312 23.8533 33.3867 23.7284C33.4491 23.5897 33.5116 23.562 33.7959 23.562C33.9901 23.562 34.1912 23.5134 34.2883 23.451C34.4686 23.3192 34.8501 22.7505 34.8501 22.6049C34.8501 22.5494 34.5727 22.0848 34.2328 21.5646C33.248 20.0319 33.248 20.0874 34.1635 20.1082C34.753 20.129 34.8015 20.1151 34.9264 19.9625C34.9957 19.8724 35.0581 19.7337 35.0581 19.6435C35.0581 19.5603 34.7669 19.0055 34.4132 18.4229C34.0594 17.8334 33.6433 17.1329 33.4977 16.8694C33.1301 16.1967 33.0053 16.0718 32.7001 16.0718C32.5129 16.0718 32.4019 16.1204 32.2701 16.2591Z" fill="white"/>
<path d="M14.4671 16.6683C14.3839 16.7723 14.3215 16.9318 14.3215 17.022C14.3215 17.2578 14.6128 17.5282 14.8763 17.5282C15.1398 17.5282 15.4311 17.2578 15.4311 17.0081C15.4311 16.5434 14.7515 16.3076 14.4671 16.6683Z" fill="white"/>
<path d="M5.63149 21.1901C5.46505 21.3704 5.48585 21.6617 5.66617 21.7865C5.77714 21.8698 5.99213 21.8975 6.44987 21.8975C7.0255 21.8975 7.10179 21.8836 7.23356 21.738C7.42775 21.5299 7.42775 21.308 7.23356 21.1762C7.11566 21.093 6.90066 21.0653 6.40825 21.0653C5.85343 21.0653 5.72165 21.0861 5.63149 21.1901Z" fill="white"/>
<path d="M11.6652 21.1624C11.6444 21.2178 11.8248 21.5438 12.0744 21.8906C12.3172 22.2443 12.7402 22.8615 13.0107 23.2707C13.621 24.1862 13.7458 24.3249 13.9539 24.3249C14.1134 24.3249 14.4602 24.0475 14.4602 23.9226C14.4602 23.8879 14.1758 23.4233 13.8291 22.8962L13.2049 21.9391L13.5031 21.8628C13.7042 21.8143 13.8291 21.738 13.8984 21.6062C14.0024 21.4328 13.9955 21.4051 13.8429 21.2456C13.6765 21.0653 13.6557 21.0653 12.6847 21.0653C11.901 21.0653 11.693 21.0861 11.6652 21.1624Z" fill="white"/>
<path d="M4.68135 23.6313C4.47329 23.8394 4.4941 24.207 4.72297 24.3873C4.97264 24.5815 5.20844 24.5676 5.40956 24.3526C5.61762 24.1237 5.63149 23.9157 5.4373 23.6729C5.25699 23.4441 4.88941 23.4233 4.68135 23.6313Z" fill="white"/>
<path d="M45.7802 25.8576C45.5236 26.0587 45.5236 26.4887 45.7732 26.6551C46.0368 26.8285 46.2934 26.8008 46.4806 26.5858C46.6887 26.3431 46.6818 26.0934 46.4668 25.8853C46.2587 25.6773 46.0229 25.6634 45.7802 25.8576Z" fill="white"/>
</svg>
