<svg width="210" height="228" viewBox="0 0 210 228" fill="none" xmlns="http://www.w3.org/2000/svg">
<path d="M99.0677 0.240142C85.369 1.21453 71.7849 5.05476 58.602 11.6462C46.8807 17.5212 39.2003 23.0522 29.9149 32.3089C24.5272 37.668 20.6296 42.3967 16.6461 48.3863C7.79064 61.7984 3.00469 74.6374 0.769331 91.0587C0.368113 94.1251 0.253479 96.819 0.253479 104.098C0.253479 112.753 0.310796 113.556 1.08457 118.571C4.60956 141.326 13.5796 159.294 29.1698 174.885C33.7265 179.413 38.2259 183.195 48.5429 191.077C51.2941 193.197 55.5642 196.464 58.0002 198.384C60.4362 200.276 65.824 204.431 69.9794 207.555C74.1349 210.708 79.6087 214.863 82.1592 216.812C93.3934 225.323 97.5202 227.243 104.857 227.272C110.015 227.301 113.655 226.24 118.555 223.289C121.393 221.569 136.84 210.02 155.582 195.547C159.05 192.882 163.377 189.5 165.183 188.067C166.988 186.635 170.083 184.17 172.061 182.594C176.188 179.355 185.931 169.726 188.797 166.144C199.544 152.588 206.279 136.396 209.087 117.424C209.661 113.527 209.747 111.865 209.747 104.098C209.747 97.1629 209.632 94.3257 209.231 91.202C207.167 75.3539 201.98 61.1966 193.784 48.9595C178.738 26.5486 157.388 11.1303 131.079 3.70781C123.628 1.58709 117.524 0.584043 110.015 0.211484C104.198 -0.0751004 103.567 -0.0751003 99.0677 0.240142ZM115.604 13.2224C120.447 13.9675 125.061 15.0565 130.277 16.7474C135.865 18.5242 139.533 20.0431 145.265 22.909C150.452 25.4882 151.054 25.8608 156.012 29.1851C167.762 37.0949 176.302 45.9503 184.269 58.5314C190.173 67.8167 194.443 79.4807 196.277 91.3453C196.908 95.4148 197.137 105.388 196.736 111.177C196.277 117.682 194.414 128.257 193.698 128.515C193.383 128.601 190.689 124.417 190.689 123.815C190.689 123.414 191.376 123.156 192.437 123.156C193.526 123.156 194.472 122.21 194.357 121.207L194.271 120.434L189.628 120.29C185.272 120.147 184.957 120.118 184.298 119.488C183.438 118.657 182.836 117.31 183.066 116.708C183.18 116.364 183.753 116.278 185.731 116.278C187.88 116.278 188.31 116.192 188.883 115.648C189.256 115.304 189.542 114.788 189.542 114.473C189.542 114.157 188.023 111.635 186.189 108.856C184.212 105.904 182.836 103.525 182.808 103.095C182.808 102.379 182.808 102.379 186.161 102.235C188.883 102.121 189.6 102.006 190.087 101.548C191.233 100.516 190.918 99.6562 187.135 93.7812C183.266 87.7916 182.664 86.7313 182.664 86.0435C182.664 85.5849 183.123 85.5276 186.189 85.6136C187.68 85.6422 187.909 85.5563 188.711 84.7538C189.772 83.7221 189.714 83.0916 188.339 80.8849C187.364 79.3374 182.836 71.5996 182.034 70.1954C181.346 68.9057 180.286 68.3039 179.082 68.5332C178.05 68.7338 177.592 69.3643 173.379 76.7295C172.806 77.7612 171.745 79.4807 171.029 80.5984C170.341 81.6874 169.768 82.8624 169.768 83.2063C169.768 83.5788 170.112 84.2666 170.542 84.7538C171.287 85.6709 171.344 85.6709 173.15 85.5276C174.984 85.3557 176.073 85.6136 176.073 86.2441C176.073 86.416 174.755 88.5367 173.178 90.944C170.943 94.3257 170.313 95.5007 170.456 95.9879C170.542 96.3605 171.717 97.9367 173.092 99.5129C174.439 101.089 176.331 103.296 177.305 104.442C178.452 105.789 179.34 106.563 179.856 106.678C181.604 107.079 182.378 109.343 181.174 110.46C180.572 111.034 180.142 111.091 175.27 111.148L170.055 111.234L169.338 110.518C168.937 110.145 168.507 109.4 168.364 108.884C168.077 107.91 168.049 107.91 169.567 106.792C170.742 105.904 170.57 105.015 168.708 102.235C165.154 96.991 160.884 90.3995 160.884 90.1703C160.884 90.0556 161.085 89.7404 161.342 89.5111C161.658 89.1672 162.374 89.0526 164.18 89.0526C166.071 89.0526 166.673 88.938 167.217 88.5081C168.593 87.4191 168.249 86.6166 163.377 79.3374C160.913 75.6691 158.878 72.488 158.878 72.2874C158.878 71.7716 159.996 70.4246 160.454 70.4246C160.97 70.4246 162.489 72.1728 165.211 75.8697C166.472 77.5892 167.762 79.0795 168.106 79.1941C168.908 79.452 170.169 78.449 170.284 77.4746C170.37 76.9014 169.911 76.0703 168.392 74.0642C165.985 70.8832 165.555 70.138 166.157 70.138C166.386 70.138 166.96 69.7941 167.447 69.3929C168.507 68.5045 168.622 67.2722 167.762 65.9826C166.902 64.7216 161.142 55.121 159.91 52.857C159.308 51.7966 158.563 50.7363 158.219 50.507C157.474 49.9912 155.725 49.9338 155.095 50.421C154.837 50.6216 153.318 53.0576 151.713 55.8088C150.108 58.56 147.93 62.171 146.899 63.8045C144.692 67.2722 144.491 68.3326 145.81 69.4502C146.497 70.0807 146.87 70.138 149.277 70.138C151.828 70.138 152 70.1667 152.43 70.8258C152.974 71.6569 153.06 71.4563 150.223 75.7837C143.861 85.4416 143.374 86.33 143.746 87.3617C144.233 88.7947 144.921 89.0526 148.332 89.0526C151.341 89.0526 151.455 89.0812 151.771 89.7404C152.143 90.5715 152.43 90.0843 146.927 98.2519C142.485 104.843 142.256 105.417 143.546 106.706C144.233 107.394 144.405 107.423 147.157 107.337C149.736 107.251 150.08 107.308 150.452 107.795C150.682 108.11 150.853 108.512 150.853 108.684C150.853 108.884 149.879 110.489 148.704 112.266C147.529 114.043 146.555 115.619 146.555 115.734C146.555 116.192 151.484 121.952 159.308 130.607C163.807 135.594 174.181 147.286 175.299 148.605C176.13 149.636 176.331 151.155 175.729 151.757C175.528 151.958 174.64 152.101 173.723 152.101H172.089L169.424 149.035C167.963 147.344 165.584 144.679 164.151 143.074C162.747 141.497 158.677 136.912 155.152 132.9C147.586 124.302 145.924 122.411 133.486 108.368C128.299 102.522 122.883 96.3891 121.421 94.727C119.759 92.8068 118.527 91.6319 118.04 91.5172C116.865 91.2306 115.288 92.119 114.629 93.466L114.085 94.5837L113.54 93.8959C112.165 92.119 109.585 88.1069 109.585 87.7057C109.585 87.4477 109.786 86.9892 110.073 86.7026C110.474 86.2727 110.99 86.1867 113.913 86.1867C117.209 86.1867 117.294 86.1581 117.868 85.4416C118.212 85.0117 118.469 84.324 118.469 83.9227C118.469 83.4069 116.922 80.7416 114.085 76.2709C111.677 72.5167 108.697 67.788 107.436 65.7533C106.175 63.7472 104.914 62.0277 104.627 61.9417C103.882 61.7125 103.109 62.5149 101.131 65.61C100.214 67.0716 98.5805 69.6222 97.5202 71.2844C91.2726 81.0569 89.8111 83.4929 89.8111 84.1807C89.8111 84.6105 90.069 85.2124 90.3842 85.5563C90.9287 86.1294 91.2726 86.1867 94.1098 86.1867C96.8897 86.1867 97.3196 86.2441 97.8354 86.7599C98.1507 87.0752 98.4086 87.4764 98.4086 87.6483C98.4086 87.9922 93.9952 94.555 91.4446 97.994C90.2409 99.6275 89.6104 100.229 89.1519 100.229C88.808 100.229 86.7446 100.516 84.5666 100.86C80.2105 101.576 80.0672 101.548 79.0068 99.9428C78.233 98.8251 78.2044 98.4239 78.8062 97.8221C79.1501 97.4782 79.8666 97.3635 81.7867 97.3635C84.194 97.3635 84.366 97.3349 84.8245 96.6471C85.5983 95.4721 85.6269 95.5581 79.7233 86.6166C78.8062 85.2124 78.0898 83.8654 78.1184 83.6075C78.2044 83.2636 78.7776 83.149 80.8983 83.0343C83.2769 82.9197 83.6208 82.8051 84.1367 82.2032C84.8245 81.3148 84.6525 80.541 83.3916 78.5923C82.8757 77.7898 81.2708 75.0959 79.7806 72.574C76.5709 67.0429 76.0264 66.4124 74.6221 66.4124C73.3038 66.4124 72.9026 66.8423 70.7532 70.5679C69.8361 72.1441 68.0593 75.0386 66.827 76.9874C65.5947 78.9648 64.5916 80.8563 64.5916 81.2288C64.5916 81.6014 64.9069 82.2319 65.3081 82.6331C65.9672 83.2923 66.1678 83.3209 67.7154 83.149C69.8075 82.9197 70.8965 83.149 70.8965 83.8368C70.8678 84.0947 69.9794 85.6709 68.8904 87.3331C63.5886 95.3574 63.3593 95.9306 64.8209 97.0769C65.5087 97.6501 65.824 97.6788 67.5148 97.5068C69.6642 97.3062 70.6099 97.6215 70.6099 98.5385C70.6099 98.8824 69.8934 100.172 69.005 101.404C67.83 103.095 67.2569 103.668 66.7697 103.668C65.5374 103.668 58.1435 105.13 57.7709 105.474C57.3411 105.818 51.8673 112.954 51.0649 114.186L50.5777 114.931L47.5972 110.317C43.7856 104.499 43.8716 104.671 44.2442 103.955C44.5307 103.439 44.846 103.382 47.7118 103.382C50.6636 103.382 50.8929 103.353 51.5521 102.665C51.9533 102.293 52.2685 101.662 52.2685 101.29C52.2685 100.889 51.0649 98.7391 49.5173 96.3318C46.6801 91.9471 42.2094 84.8971 41.8368 84.238C41.7222 84.0374 41.8368 83.5502 42.0661 83.1776C42.5247 82.4898 42.6393 82.4612 46.1643 82.4612C49.4886 82.4612 49.8612 82.4038 50.463 81.8307C51.6667 80.6843 51.4088 79.9392 47.5112 74.0929C45.5051 71.0838 43.8716 68.4185 43.8429 68.1606C43.8143 67.788 44.3015 67.6734 46.8807 67.5588C49.5173 67.4441 50.0045 67.3295 50.3771 66.8423C51.2082 65.7533 50.8929 64.9222 47.8551 60.1936C46.2216 57.6716 44.1582 54.3472 43.2698 52.8283C41.493 49.8479 40.8625 49.332 39.2863 49.6186C38.0539 49.8479 37.882 50.0485 35.446 54.0893C34.3283 55.8948 32.3796 59.0186 31.1186 60.996C28.3387 65.3234 28.1954 65.7533 29.1412 66.871C29.8576 67.7021 29.8863 67.7021 32.7235 67.6161C34.3857 67.5874 35.6753 67.6734 35.7899 67.8167C35.8759 67.9886 34.2137 70.7112 32.0643 73.8923C29.5997 77.5606 28.1954 79.9392 28.1954 80.3978C28.1954 80.799 28.482 81.4295 28.8259 81.802C29.3991 82.4325 29.657 82.4612 32.9527 82.4612C36.6783 82.4612 37.3661 82.6904 37.3661 83.9227C37.3661 84.2093 35.2454 87.6197 32.6375 91.4886C26.7625 100.201 26.4186 100.831 26.8198 101.978C26.9631 102.436 27.3357 102.952 27.6223 103.095C27.9089 103.267 29.4851 103.382 31.1186 103.382C35.36 103.382 35.7039 103.926 33.3826 107.079C28.7686 113.355 26.39 117.023 26.39 117.826C26.39 119.373 27.2211 119.717 31.1473 119.717C33.9558 119.717 34.7009 119.803 35.1308 120.204C35.4174 120.462 35.6466 120.806 35.6466 121.007C35.6466 121.379 30.2875 129.289 29.9436 129.404C29.657 129.49 20.1711 113.842 20.1711 113.298C20.1711 113.212 20.429 113.126 20.7729 113.126C21.604 113.126 22.4638 112.61 22.4638 112.094C22.4638 111.578 20.6869 108.254 19.6839 106.878C18.8815 105.789 18.4802 105.732 17.6778 106.592C16.99 107.365 14.726 111.779 14.726 112.381C14.726 112.81 15.3278 113.126 16.1876 113.126C16.4741 113.126 16.7321 113.298 16.7321 113.498C16.7321 114.014 14.4681 117.539 14.2674 117.338C13.3504 116.45 12.6912 101.892 13.2644 96.0739C14.0095 88.766 15.1272 83.0916 17.076 77.0161C22.8077 58.9899 37.1082 40.276 53.7014 29.1565C67.6581 19.8138 81.2708 14.8273 98.6952 12.7066C100.902 12.4486 112.709 12.8212 115.604 13.2224ZM124.631 105.531C127.984 109.314 133.544 115.59 136.983 119.459C140.45 123.328 144.921 128.429 146.985 130.779C153.003 137.686 158.792 144.22 162.46 148.204L165.899 151.958L163.635 152.044C160.741 152.158 160.368 151.9 155.467 146.857C147.243 138.374 140.021 129.576 134.26 120.921C131.853 117.338 131.308 116.909 130.449 117.912C130.219 118.198 129.274 119.66 128.357 121.15C123.886 128.372 117.409 136.883 111.505 143.274C108.324 146.713 104.14 150.668 102.621 151.671C102.02 152.044 100.271 152.101 88.3781 152.044L74.8227 151.958L76.1983 150.267C76.9434 149.35 78.8922 146.914 80.4684 144.822C86.2574 137.342 88.3781 134.619 94.9982 126.165C98.6952 121.437 103.395 115.39 105.43 112.724C107.493 110.059 110.13 106.649 111.305 105.13C112.48 103.611 114.285 101.261 115.317 99.9141L117.18 97.4208L117.868 98.0513C118.24 98.3666 121.278 101.748 124.631 105.531ZM106.72 102.694C106.72 102.78 106.433 103.267 106.089 103.754C105.143 105.101 93.3074 120.634 89.6678 125.305C74.4215 144.851 69.0624 151.671 68.7471 151.872C68.6038 151.986 66.5118 152.101 64.1044 152.101H59.777L59.3185 150.869C58.0862 147.401 57.2837 142.73 56.7965 136.31C56.5959 133.559 56.2807 131.209 56.1087 130.951C55.7935 130.521 55.7075 130.521 55.2203 130.951C54.9051 131.238 54.3606 132.212 53.988 133.101C52.4978 136.769 48.1704 144.335 44.9033 149.006L42.7253 152.101H27.5363L28.2241 151.27C28.8546 150.496 30.5741 148.318 39.0856 137.485C45.0753 129.862 49.2021 124.503 54.7045 117.224C59.4045 110.976 60.2929 109.973 61.1526 109.715C62.2416 109.4 68.0306 108.426 75.6251 107.251C90.7568 104.958 104.914 102.78 105.287 102.694C106.06 102.522 106.72 102.522 106.72 102.694ZM163.435 108.454C163.922 109.056 165.326 110.862 166.587 112.467C167.848 114.071 169.138 115.533 169.453 115.676C169.768 115.848 170.943 115.991 172.089 115.991C173.608 115.991 174.296 116.106 174.697 116.479C175.557 117.252 175.356 118.427 174.095 119.803L172.949 121.035L174.841 123.443C179.225 129.117 179.713 130.435 178.079 132.098C177.334 132.814 177.047 132.929 176.274 132.785C175.758 132.671 175.127 132.355 174.841 132.069C174.325 131.582 172.261 128.429 167.905 121.58C166.702 119.688 164.495 116.278 163.005 113.985C160.139 109.572 159.824 108.626 160.941 107.853C161.916 107.165 162.489 107.308 163.435 108.454ZM132.369 128.802C133.229 133.158 134.833 138.689 136.209 142.128C137.241 144.707 139.791 149.894 140.565 151.012C140.88 151.413 141.11 151.843 141.11 151.929C141.11 152.015 136.725 152.101 131.366 152.101C126.007 152.101 121.622 152.044 121.622 151.958C121.622 151.872 122.023 151.184 122.482 150.41C123.571 148.662 125.949 143.647 126.924 141.039C128.07 137.973 129.79 131.926 130.535 128.229C130.907 126.395 131.28 124.876 131.394 124.876C131.48 124.876 131.91 126.652 132.369 128.802ZM71.1544 161.558H31.0326L30.3448 160.842C29.3131 159.839 29.3418 158.091 30.3735 157.288C31.1186 156.686 31.3479 156.686 51.2368 156.686H71.3264L71.1544 161.558ZM180.056 157.403C181.031 158.377 181.117 159.61 180.286 160.584L179.569 161.415L75.4818 161.558V156.686L127.497 156.744C179.082 156.83 179.512 156.83 180.056 157.403ZM163.95 166.86C165.412 167.892 165.211 170.299 163.578 170.958C162.947 171.216 148.79 171.302 104.37 171.245L45.9923 171.159L45.3332 170.5C44.4161 169.611 44.4448 167.72 45.3618 166.975C46.021 166.43 47.5685 166.43 104.685 166.43C156.069 166.43 163.406 166.488 163.95 166.86ZM108.869 179.756C114.715 181.304 119.387 186.577 120.218 192.653C121.077 198.872 117.495 205.606 111.849 208.386C102.908 212.771 92.4476 207.842 89.9543 198.098C88.0056 190.446 92.7056 182.45 100.701 179.871C102.707 179.212 106.576 179.183 108.869 179.756Z" fill="#2E8080"/>
<path d="M97.4629 21.0748C92.247 22.4791 88.0629 25.001 84.4806 28.9272C77.9178 36.1205 76.1123 45.9503 79.5227 55.6942C80.7263 59.1046 83.191 63.5753 87.5757 70.3387C89.7537 73.663 89.9543 73.8923 90.3269 73.4051C91.0147 72.4594 96.0872 64.6929 98.4659 60.91C99.7269 58.8753 101.16 56.9552 101.647 56.6113C102.937 55.6942 105.631 55.6942 106.891 56.5826C107.379 56.9552 109.471 59.821 111.735 63.3173C117.81 72.6887 118.584 73.835 118.842 73.663C118.957 73.6057 120.103 71.9722 121.393 70.0521C128.586 59.3338 130.965 53.6308 131.28 46.4949C131.394 43.4571 131.337 42.7406 130.678 40.19C128.586 32.0797 123.026 25.5456 115.604 22.4218C111.935 20.8742 109.987 20.5017 105.143 20.387C100.816 20.2724 100.386 20.3011 97.4629 21.0748ZM101.561 31.1913C104.312 32.5669 105.802 34.9742 105.831 38.0693C105.917 43.629 100.902 47.326 95.3421 45.8071C93.7086 45.3485 91.8745 43.8869 90.8141 42.1961C90.0403 40.9351 89.9543 40.5912 89.9543 38.3559C89.9543 35.576 90.4702 34.2864 92.161 32.6242C93.8519 30.962 95.3708 30.3602 98.0074 30.3315C99.4116 30.3029 100.099 30.4748 101.561 31.1913ZM117.438 33.3693C117.696 34.487 117.782 34.573 118.699 34.6589C120.676 34.8309 120.733 36.6077 118.756 36.6077C117.667 36.6077 117.61 36.6364 117.61 37.5248C117.61 38.7857 117.266 39.2443 116.435 39.1296C115.862 39.0723 115.747 38.8717 115.661 37.8114C115.575 36.6077 115.546 36.6077 114.486 36.6077C113.225 36.6077 112.594 36.0632 112.881 35.1748C113.024 34.7163 113.311 34.6016 114.343 34.6016C115.575 34.6016 115.604 34.573 115.604 33.6559C115.604 31.7071 117.037 31.4778 117.438 33.3693ZM119.444 50.2491C119.53 50.507 119.616 51.0802 119.616 51.5387C119.616 52.2839 119.702 52.3698 120.562 52.3698C121.794 52.3698 122.252 52.7137 122.138 53.5448C122.08 54.118 121.88 54.2326 120.848 54.3186L119.616 54.4046V55.6942C119.616 56.8979 119.587 56.9552 118.785 56.9552C117.896 56.9552 117.61 56.554 117.61 55.2357C117.61 54.4619 117.524 54.4046 116.435 54.3186C115.145 54.2326 114.515 53.6308 114.83 52.8284C114.973 52.5131 115.374 52.3698 116.32 52.3698H117.61V51.2808C117.61 50.679 117.696 50.0772 117.81 49.9912C118.154 49.6186 119.272 49.7906 119.444 50.2491ZM90.3842 52.3412C90.5275 52.6564 90.6708 53.2582 90.6708 53.6595C90.6708 54.2613 90.7854 54.4046 91.1293 54.2613C91.3586 54.1753 91.9031 54.1753 92.2757 54.2613C92.8488 54.4046 92.9635 54.6052 92.9062 55.207C92.8202 55.8375 92.6769 55.9521 91.7598 56.0381C90.8428 56.1241 90.6708 56.2387 90.6708 56.8119C90.6708 58.1015 90.155 59.0186 89.4385 58.904C88.894 58.818 88.808 58.6174 88.722 57.4424C88.6647 56.6113 88.5214 56.1527 88.3495 56.2674C88.1775 56.3534 87.6044 56.3534 87.0598 56.2674C86.2288 56.0954 86.0855 55.9521 86.0855 55.2357C86.0855 54.4906 86.2001 54.4046 87.3751 54.204C88.6074 54.032 88.6647 53.9747 88.6647 53.115C88.6647 52.5991 88.7507 52.0832 88.8653 51.9973C89.2379 51.5961 90.0976 51.7967 90.3842 52.3412Z" fill="#2E8080"/>
<path d="M147.185 34.6589C146.985 34.8595 146.841 35.404 146.841 35.8912C146.841 37.2095 146.297 37.7827 144.835 37.9546C143.288 38.1553 142.829 38.4705 142.829 39.3302C142.829 40.2187 143.288 40.5339 144.921 40.7632C146.411 40.9924 146.841 41.5369 146.841 43.1705C146.841 44.1449 147.329 44.6321 148.303 44.6321C149.277 44.6321 149.392 44.4601 149.621 42.5973C149.793 41.0211 150.28 40.6199 151.971 40.6199C152.888 40.6199 153.433 40.1613 153.433 39.3302C153.433 38.5278 152.917 38.0406 152.028 38.0406C150.166 38.0406 149.879 37.6967 149.306 35.0888C149.163 34.487 148.962 34.315 148.332 34.315C147.902 34.315 147.386 34.4583 147.185 34.6589Z" fill="#2E8080"/>
<path d="M59.6337 40.276C59.3471 40.5626 59.1465 41.279 59.1465 41.8235C59.1465 44.8327 58.2868 45.7211 55.1057 45.979C52.8703 46.1796 52.2685 46.5522 52.2685 47.7558C52.2685 48.9022 52.6697 49.1314 55.1344 49.3607C56.3094 49.4753 57.513 49.6759 57.7709 49.8192C58.5734 50.2491 59.1465 51.6534 59.1465 53.1723C59.1465 55.3503 60.5795 56.2387 61.9551 54.9491C62.4709 54.4619 62.5855 54.032 62.5855 52.6851C62.5855 51.3381 62.7002 50.9369 63.2447 50.421C64.0758 49.6473 65.4514 49.2174 67.0849 49.2174C68.002 49.2174 68.4032 49.0741 68.7184 48.5869C69.3203 47.7272 69.2916 47.154 68.6038 46.4089C68.1166 45.893 67.6868 45.7784 66.2252 45.7784C63.6459 45.7784 62.8721 45.0906 62.6142 42.5686C62.4996 41.5369 62.2416 40.4766 62.041 40.2187C61.5252 39.5882 60.2069 39.6455 59.6337 40.276Z" fill="#2E8080"/>
<path d="M171.172 54.3473C170.656 54.7485 170.484 55.1784 170.484 56.0954C170.484 57.0125 170.656 57.4424 171.172 57.8436C172.118 58.6174 173.522 58.56 174.353 57.6716C176.331 55.5796 173.408 52.5131 171.172 54.3473Z" fill="#2E8080"/>
<path d="M133.601 67.1862C133.2 67.6448 132.455 68.7625 131.939 69.7082C130.678 71.9435 126.866 78.277 126.007 79.538C125.118 80.885 125.147 81.974 126.121 82.7478C126.78 83.2636 127.239 83.3496 128.786 83.3209C131.566 83.235 131.939 83.2923 131.939 83.7221C131.939 83.9514 130.707 86.0148 129.216 88.3362C127.726 90.6575 126.494 92.7209 126.494 92.9502C126.494 93.3227 127.268 94.2971 132.283 100.086C135.12 103.382 135.292 103.525 136.438 103.611C137.556 103.697 137.699 103.611 138.244 102.751C138.932 101.605 138.96 100.774 138.358 99.5989C138.015 98.9111 137.986 98.5672 138.215 98.0514C138.473 97.4782 138.731 97.3636 139.906 97.3636C140.708 97.3636 141.54 97.1629 141.941 96.905C142.686 96.3605 144.262 94.0105 144.262 93.4087C144.262 93.1794 143.116 91.2593 141.711 89.1099C137.642 82.7764 137.642 83.0057 141.425 83.0917C143.861 83.1776 144.061 83.1203 144.577 82.4898C144.864 82.1173 145.122 81.5441 145.122 81.1715C145.122 80.8276 143.918 78.535 142.457 76.1277C140.995 73.6917 139.275 70.7972 138.674 69.7082C137.155 66.9283 136.639 66.4125 135.378 66.4125C134.604 66.4125 134.146 66.6131 133.601 67.1862Z" fill="#2E8080"/>
<path d="M60.0349 68.8771C59.691 69.3069 59.4331 69.9661 59.4331 70.3387C59.4331 71.313 60.6368 72.4307 61.7258 72.4307C62.8148 72.4307 64.0185 71.313 64.0185 70.2813C64.0185 68.3612 61.2099 67.3868 60.0349 68.8771Z" fill="#2E8080"/>
<path d="M23.5241 87.5624C22.8363 88.3075 22.9223 89.5111 23.6674 90.027C24.1259 90.3709 25.0144 90.4855 26.9058 90.4855C29.2845 90.4855 29.5997 90.4282 30.1442 89.8264C30.9467 88.9666 30.9467 88.0496 30.1442 87.5051C29.657 87.1611 28.7686 87.0465 26.7339 87.0465C24.4412 87.0465 23.8967 87.1325 23.5241 87.5624Z" fill="#2E8080"/>
<path d="M48.4569 87.4477C48.371 87.677 49.1161 89.0239 50.1478 90.4569C51.1508 91.9184 52.899 94.469 54.0167 96.1599C56.5386 99.9428 57.0545 100.516 57.9142 100.516C58.5734 100.516 60.0063 99.3696 60.0063 98.8538C60.0063 98.7105 58.8313 96.7904 57.3984 94.6123L54.8191 90.6575L56.0514 90.3422C56.8825 90.1416 57.3984 89.8264 57.685 89.2819C58.1148 88.5654 58.0862 88.4508 57.4557 87.7916C56.7679 87.0465 56.6819 87.0465 52.6697 87.0465C49.4313 87.0465 48.5716 87.1325 48.4569 87.4477Z" fill="#2E8080"/>
<path d="M19.5979 97.6501C18.7382 98.5099 18.8241 100.029 19.7699 100.774C20.8016 101.576 21.776 101.519 22.607 100.631C23.4668 99.6849 23.5241 98.8251 22.7217 97.8221C21.9766 96.8763 20.4577 96.7904 19.5979 97.6501Z" fill="#2E8080"/>
<path d="M189.428 106.849C188.367 107.681 188.367 109.457 189.399 110.145C190.488 110.862 191.548 110.747 192.322 109.859C193.182 108.856 193.153 107.824 192.265 106.964C191.405 106.104 190.431 106.047 189.428 106.849Z" fill="#2E8080"/>
</svg>
