<svg width="36" height="30" viewBox="0 0 36 30" fill="none" xmlns="http://www.w3.org/2000/svg">
<path d="M17.3231 14.5187C17.5236 14.6526 17.7592 14.7241 18.0003 14.7241C18.1606 14.7246 18.3194 14.6934 18.4676 14.6323C18.6158 14.5711 18.7504 14.4813 18.8638 14.3679C18.9771 14.2545 19.0668 14.1197 19.1278 13.9715C19.1888 13.8232 19.2199 13.6644 19.2193 13.5041C19.2191 13.263 19.1474 13.0274 19.0133 12.8271C18.8793 12.6268 18.6888 12.4707 18.4661 12.3786C18.2433 12.2865 17.9982 12.2625 17.7618 12.3096C17.5254 12.3568 17.3083 12.4729 17.1379 12.6435C16.9676 12.814 16.8516 13.0312 16.8046 13.2676C16.7577 13.5041 16.7818 13.7491 16.8741 13.9718C16.9664 14.1945 17.1227 14.3848 17.3231 14.5187Z" fill="#6E7191"/>
<path d="M25.6233 14.7241C25.3822 14.7241 25.1466 14.6526 24.9462 14.5187C24.7457 14.3848 24.5895 14.1945 24.4972 13.9718C24.4049 13.7491 24.3807 13.5041 24.4277 13.2676C24.4746 13.0312 24.5906 12.814 24.761 12.6435C24.9314 12.4729 25.1485 12.3568 25.3849 12.3096C25.6213 12.2625 25.8663 12.2865 26.0891 12.3786C26.3119 12.4707 26.5023 12.6268 26.6364 12.8271C26.7704 13.0274 26.8421 13.263 26.8423 13.5041C26.843 13.6644 26.8119 13.8232 26.7509 13.9715C26.6899 14.1197 26.6001 14.2545 26.4868 14.3679C26.3735 14.4813 26.2389 14.5711 26.0906 14.6323C25.9424 14.6934 25.7836 14.7246 25.6233 14.7241Z" fill="#6E7191"/>
<path d="M9.69809 14.5187C9.89859 14.6526 10.1342 14.7241 10.3753 14.7241C10.5356 14.7246 10.6944 14.6934 10.8426 14.6323C10.9908 14.5711 11.1254 14.4813 11.2388 14.3679C11.3521 14.2545 11.4418 14.1197 11.5028 13.9715C11.5638 13.8232 11.5949 13.6644 11.5943 13.5041C11.5941 13.263 11.5224 13.0274 11.3883 12.8271C11.2543 12.6268 11.0638 12.4707 10.8411 12.3786C10.6183 12.2865 10.3732 12.2625 10.1368 12.3096C9.90039 12.3568 9.68329 12.4729 9.51289 12.6435C9.34259 12.814 9.22659 13.0312 9.17959 13.2676C9.13269 13.5041 9.15679 13.7491 9.24909 13.9718C9.34139 14.1945 9.49769 14.3848 9.69809 14.5187Z" fill="#6E7191"/>
<path fill-rule="evenodd" clip-rule="evenodd" d="M16.4147 29.4959C16.9124 29.724 17.4531 29.8428 18.0005 29.8443C18.5486 29.8433 19.0901 29.7248 19.5885 29.4968C20.0868 29.2687 20.5305 28.9364 20.8895 28.5223L23.2895 25.7683C23.3309 25.7248 23.3807 25.6902 23.4359 25.6664C23.491 25.6427 23.5504 25.6304 23.6105 25.6303H24.4105C31.4945 25.6303 35.2285 22.4223 35.2285 16.3363V9.45127C35.2285 3.36523 31.4945 0.157227 24.4105 0.157227H11.5895C4.50548 0.157227 0.771484 3.36523 0.771484 9.45127V16.3363C0.771484 24.0753 4.90648 25.6313 11.5945 25.6303H12.3945C12.5103 25.6524 12.6198 25.6995 12.7155 25.7683L15.1155 28.5223C15.474 28.9359 15.9171 29.2679 16.4147 29.4959ZM3.17148 9.45127C3.17148 4.52223 5.85148 2.22223 11.5895 2.22223H24.3965C30.1345 2.22223 32.8105 4.52223 32.8105 9.45127V16.3363C32.8105 21.2653 30.1345 23.5653 24.3965 23.5653H23.5965C23.1756 23.5587 22.7581 23.6411 22.3714 23.8073C21.9846 23.9734 21.6374 24.2195 21.3525 24.5293L18.9525 27.2833C18.8394 27.4309 18.6939 27.5505 18.5272 27.6329C18.3604 27.7152 18.1769 27.758 17.991 27.758C17.805 27.758 17.6216 27.7152 17.4548 27.6329C17.2881 27.5505 17.1425 27.4309 17.0295 27.2833L14.6295 24.5293C14.0384 23.9239 13.2315 23.5773 12.3855 23.5653H11.5855C5.65548 23.5653 3.17148 22.5603 3.17148 16.3363V9.45127Z" fill="#6E7191"/>
</svg>
