<svg width="28" height="26" viewBox="0 0 28 26" fill="none" xmlns="http://www.w3.org/2000/svg">
<g clip-path="url(#clip0_42_832)">
<path d="M8.66339 25.5133C8.13374 25.1723 7.66432 24.7509 7.27317 24.2653C6.84292 23.7642 6.44427 23.2383 6.0794 22.6907C5.22318 21.4767 4.55171 20.1498 4.08558 18.7509C3.52564 17.1259 3.25448 15.5683 3.25448 14.0449C3.25448 12.3435 3.63477 10.8583 4.37857 9.61027C4.92994 8.63482 5.74059 7.81966 6.72666 7.24914C7.68227 6.67468 8.78028 6.36031 9.90501 6.33914C10.2987 6.33914 10.7227 6.39439 11.1727 6.50002C11.4959 6.58858 11.8896 6.72833 12.3706 6.90221C12.9826 7.13052 13.3193 7.27027 13.4334 7.30439C13.7919 7.43114 14.0933 7.48639 14.33 7.48639C14.5097 7.48639 14.7632 7.43114 15.0512 7.34664C15.2132 7.29139 15.5188 7.19389 15.9561 7.01271C16.3893 6.85996 16.7302 6.72914 17.0013 6.63164C17.4169 6.51302 17.819 6.40333 18.1775 6.34808C18.6024 6.28324 19.0337 6.26606 19.4627 6.29689C20.2062 6.34393 20.9385 6.49641 21.6362 6.74946C22.7771 7.19389 23.6997 7.88777 24.3864 8.87414C24.0962 9.04728 23.8237 9.24699 23.5729 9.47052C23.0269 9.93899 22.5618 10.489 22.1953 11.0996C21.7162 11.9341 21.4678 12.8741 21.4742 13.8288C21.4918 15.0012 21.8024 16.0339 22.4144 16.9268C22.8643 17.5886 23.4491 18.1546 24.1329 18.59C24.483 18.8183 24.7843 18.9751 25.0731 19.0808C24.938 19.487 24.7936 19.8803 24.6231 20.2703C24.2366 21.1448 23.7682 21.9833 23.2237 22.7752C22.7385 23.4569 22.3582 23.9647 22.0694 24.3027C21.6194 24.8186 21.1862 25.2127 20.7488 25.4873C20.2678 25.7961 19.6995 25.961 19.1219 25.961C18.7307 25.9756 18.3397 25.9298 17.9634 25.8253C17.6402 25.7197 17.3203 25.6051 17.0055 25.4743C16.6782 25.3288 16.3407 25.2058 15.9956 25.1063C15.1424 24.8942 14.2479 24.8928 13.394 25.1022C13.0439 25.1997 12.7073 25.3135 12.3748 25.4532C11.9072 25.6433 11.5966 25.7709 11.417 25.8253C11.0585 25.9269 10.6866 25.9903 10.3105 26.0114C9.72871 26.0114 9.1864 25.8505 8.64911 25.5247L8.66339 25.5133ZM16.3364 5.51364C15.5758 5.88171 14.8497 6.03852 14.1285 5.98733C14.0152 5.28452 14.1285 4.56546 14.4299 3.77814C14.6865 3.11114 15.0656 2.49454 15.549 1.95814C16.0594 1.39347 16.6788 0.930637 17.3724 0.595582C18.1111 0.227519 18.8155 0.0284565 19.4888 -0.000793457C19.5761 0.735332 19.4888 1.45927 19.2092 2.24171C18.9505 2.93337 18.5721 3.5774 18.0901 4.14621C17.5982 4.71165 16.9946 5.17628 16.3146 5.51283L16.3364 5.51364Z" fill="black"/>
</g>
<defs>
<clipPath id="clip0_42_832">
<rect width="26.864" height="26" fill="white" transform="translate(0.740173)"/>
</clipPath>
</defs>
</svg>
