<svg width="28" height="26" viewBox="0 0 28 26" fill="none" xmlns="http://www.w3.org/2000/svg">
<path d="M7.61839 15.4656L6.7683 18.537L3.66123 18.6006C2.73268 16.9338 2.20599 15.0266 2.20599 13C2.20599 11.0403 2.69843 9.1922 3.57132 7.56494H3.57199L6.33815 8.05576L7.54989 10.7169C7.29628 11.4325 7.15804 12.2007 7.15804 13C7.15814 13.8675 7.32051 14.6987 7.61839 15.4656Z" fill="#FFCD4E"/>
<path d="M26.4145 10.7922C26.5547 11.5071 26.6279 12.2454 26.6279 13C26.6279 13.8461 26.5359 14.6714 26.3608 15.4675C25.7664 18.1766 24.2132 20.5422 22.0615 22.2162L22.0609 22.2156L18.5768 22.0435L18.0836 19.0643C19.5114 18.2539 20.6271 16.9857 21.2149 15.4675H14.6854V10.7922H21.3101H26.4145Z" fill="#4092FF"/>
<path d="M22.0608 22.2156L22.0615 22.2163C19.9689 23.8442 17.3106 24.8182 14.4169 24.8182C9.76672 24.8182 5.72371 22.3026 3.66125 18.6007L7.6184 15.4656C8.64961 18.1293 11.3045 20.0254 14.4169 20.0254C15.7547 20.0254 17.0081 19.6754 18.0836 19.0643L22.0608 22.2156Z" fill="#18C07A"/>
<path d="M22.2112 3.90259L18.2553 7.03699C17.1423 6.36364 15.8266 5.97465 14.417 5.97465C11.2341 5.97465 8.52953 7.95775 7.54999 10.7169L3.57204 7.56493H3.57137C5.60363 3.77273 9.69763 1.18182 14.417 1.18182C17.3798 1.18182 20.0964 2.20327 22.2112 3.90259Z" fill="#FF4747"/>
</svg>
