<svg width="24" height="24" viewBox="0 0 24 24" fill="none" xmlns="http://www.w3.org/2000/svg">
<mask id="path-1-inside-1_1537_1171" fill="white">
<path d="M20.7997 23H8.00025C7.4168 23 6.85725 22.7682 6.44469 22.3556C6.03213 21.9431 5.80035 21.3835 5.80035 20.8V20.44C4.43549 20.1238 3.21798 19.3545 2.34626 18.2577C1.47453 17.1609 1 15.8011 1 14.4C1 12.9989 1.47453 11.6392 2.34626 10.5423C3.21798 9.44547 4.43549 8.67625 5.80035 8.36V3.2C5.80035 2.61653 6.03213 2.05695 6.44469 1.64437C6.85725 1.23179 7.4168 1 8.00025 1H16.9358C17.2258 0.999466 17.513 1.05646 17.7807 1.1677C18.0485 1.27893 18.2915 1.44218 18.4958 1.648L22.3516 5.504C22.5623 5.71295 22.7283 5.9625 22.8397 6.23753C22.9511 6.51256 23.0055 6.80733 22.9996 7.104V20.8C22.9996 21.3835 22.7678 21.9431 22.3552 22.3556C21.9427 22.7682 21.3831 23 20.7997 23ZM7.0003 20.6V20.8C7.0003 21.0652 7.10565 21.3196 7.29318 21.5071C7.4807 21.6946 7.73505 21.8 8.00025 21.8H20.7997C21.0649 21.8 21.3192 21.6946 21.5067 21.5071C21.6943 21.3196 21.7996 21.0652 21.7996 20.8V7.8H18.3998C17.8163 7.8 17.2568 7.56822 16.8442 7.15564C16.4317 6.74306 16.1999 6.18348 16.1999 5.6V2.2H8.00025C7.73505 2.2 7.4807 2.30536 7.29318 2.4929C7.10565 2.68043 7.0003 2.93479 7.0003 3.2V8.2H7.20029C8.84456 8.2 10.4215 8.85322 11.5841 10.0159C12.7468 11.1787 13.4 12.7557 13.4 14.4C13.4 16.0443 12.7468 17.6213 11.5841 18.7841C10.4215 19.9468 8.84456 20.6 7.20029 20.6H7.0003ZM7.20029 9.4C6.21143 9.4 5.24477 9.69325 4.42256 10.2427C3.60036 10.7921 2.95952 11.573 2.5811 12.4866C2.20268 13.4002 2.10367 14.4055 2.29659 15.3755C2.4895 16.3454 2.96569 17.2363 3.66492 17.9355C4.36415 18.6348 5.25502 19.111 6.22488 19.3039C7.19474 19.4969 8.20003 19.3978 9.11362 19.0194C10.0272 18.641 10.8081 18.0001 11.3574 17.1779C11.9068 16.3556 12.2001 15.3889 12.2001 14.4C12.2001 13.0739 11.6733 11.8022 10.7357 10.8645C9.79802 9.92679 8.52631 9.4 7.20029 9.4ZM17.3998 2.312V5.6C17.3998 5.86522 17.5052 6.11957 17.6927 6.30711C17.8802 6.49465 18.1346 6.6 18.3998 6.6H21.6876C21.6381 6.50918 21.5762 6.42571 21.5036 6.352L17.6478 2.496C17.5741 2.42343 17.4906 2.3615 17.3998 2.312ZM19.1997 17.4H15.1999C15.0408 17.4 14.8882 17.3368 14.7757 17.2243C14.6632 17.1117 14.6 16.9591 14.6 16.8C14.6 16.6409 14.6632 16.4883 14.7757 16.3757C14.8882 16.2632 15.0408 16.2 15.1999 16.2H19.1997C19.3589 16.2 19.5115 16.2632 19.624 16.3757C19.7365 16.4883 19.7997 16.6409 19.7997 16.8C19.7997 16.9591 19.7365 17.1117 19.624 17.2243C19.5115 17.3368 19.3589 17.4 19.1997 17.4ZM6.00034 16.2C5.846 16.1882 5.70241 16.1164 5.60036 16C5.50198 15.89 5.44758 15.7476 5.44758 15.6C5.44758 15.4524 5.50198 15.31 5.60036 15.2L6.62431 14.176V12C6.62431 11.8409 6.68753 11.6883 6.80004 11.5757C6.91256 11.4632 7.06516 11.4 7.22429 11.4C7.38341 11.4 7.53602 11.4632 7.64853 11.5757C7.76105 11.6883 7.82426 11.8409 7.82426 12V14.4C7.82412 14.5591 7.76082 14.7116 7.64827 14.824L6.40032 16C6.29827 16.1164 6.15469 16.1882 6.00034 16.2ZM19.1997 14.2H15.9999C15.8408 14.2 15.6882 14.1368 15.5756 14.0243C15.4631 13.9117 15.3999 13.7591 15.3999 13.6C15.3999 13.4409 15.4631 13.2883 15.5756 13.1757C15.6882 13.0632 15.8408 13 15.9999 13H19.1997C19.3589 13 19.5115 13.0632 19.624 13.1757C19.7365 13.2883 19.7997 13.4409 19.7997 13.6C19.7997 13.7591 19.7365 13.9117 19.624 14.0243C19.5115 14.1368 19.3589 14.2 19.1997 14.2ZM19.1997 11H15.1999C15.0408 11 14.8882 10.9368 14.7757 10.8243C14.6632 10.7117 14.6 10.5591 14.6 10.4C14.6 10.2409 14.6632 10.0883 14.7757 9.97574C14.8882 9.86322 15.0408 9.8 15.1999 9.8H19.1997C19.3589 9.8 19.5115 9.86322 19.624 9.97574C19.7365 10.0883 19.7997 10.2409 19.7997 10.4C19.7997 10.5591 19.7365 10.7117 19.624 10.8243C19.5115 10.9368 19.3589 11 19.1997 11ZM13.6 7.8H11.2001C11.041 7.8 10.8884 7.73679 10.7759 7.62427C10.6633 7.51174 10.6001 7.35913 10.6001 7.2C10.6001 7.04087 10.6633 6.88826 10.7759 6.77574C10.8884 6.66322 11.041 6.6 11.2001 6.6H13.6C13.7591 6.6 13.9117 6.66322 14.0242 6.77574C14.1368 6.88826 14.2 7.04087 14.2 7.2C14.2 7.35913 14.1368 7.51174 14.0242 7.62427C13.9117 7.73679 13.7591 7.8 13.6 7.8Z"/>
</mask>
<path d="M20.7997 23H8.00025C7.4168 23 6.85725 22.7682 6.44469 22.3556C6.03213 21.9431 5.80035 21.3835 5.80035 20.8V20.44C4.43549 20.1238 3.21798 19.3545 2.34626 18.2577C1.47453 17.1609 1 15.8011 1 14.4C1 12.9989 1.47453 11.6392 2.34626 10.5423C3.21798 9.44547 4.43549 8.67625 5.80035 8.36V3.2C5.80035 2.61653 6.03213 2.05695 6.44469 1.64437C6.85725 1.23179 7.4168 1 8.00025 1H16.9358C17.2258 0.999466 17.513 1.05646 17.7807 1.1677C18.0485 1.27893 18.2915 1.44218 18.4958 1.648L22.3516 5.504C22.5623 5.71295 22.7283 5.9625 22.8397 6.23753C22.9511 6.51256 23.0055 6.80733 22.9996 7.104V20.8C22.9996 21.3835 22.7678 21.9431 22.3552 22.3556C21.9427 22.7682 21.3831 23 20.7997 23ZM7.0003 20.6V20.8C7.0003 21.0652 7.10565 21.3196 7.29318 21.5071C7.4807 21.6946 7.73505 21.8 8.00025 21.8H20.7997C21.0649 21.8 21.3192 21.6946 21.5067 21.5071C21.6943 21.3196 21.7996 21.0652 21.7996 20.8V7.8H18.3998C17.8163 7.8 17.2568 7.56822 16.8442 7.15564C16.4317 6.74306 16.1999 6.18348 16.1999 5.6V2.2H8.00025C7.73505 2.2 7.4807 2.30536 7.29318 2.4929C7.10565 2.68043 7.0003 2.93479 7.0003 3.2V8.2H7.20029C8.84456 8.2 10.4215 8.85322 11.5841 10.0159C12.7468 11.1787 13.4 12.7557 13.4 14.4C13.4 16.0443 12.7468 17.6213 11.5841 18.7841C10.4215 19.9468 8.84456 20.6 7.20029 20.6H7.0003ZM7.20029 9.4C6.21143 9.4 5.24477 9.69325 4.42256 10.2427C3.60036 10.7921 2.95952 11.573 2.5811 12.4866C2.20268 13.4002 2.10367 14.4055 2.29659 15.3755C2.4895 16.3454 2.96569 17.2363 3.66492 17.9355C4.36415 18.6348 5.25502 19.111 6.22488 19.3039C7.19474 19.4969 8.20003 19.3978 9.11362 19.0194C10.0272 18.641 10.8081 18.0001 11.3574 17.1779C11.9068 16.3556 12.2001 15.3889 12.2001 14.4C12.2001 13.0739 11.6733 11.8022 10.7357 10.8645C9.79802 9.92679 8.52631 9.4 7.20029 9.4ZM17.3998 2.312V5.6C17.3998 5.86522 17.5052 6.11957 17.6927 6.30711C17.8802 6.49465 18.1346 6.6 18.3998 6.6H21.6876C21.6381 6.50918 21.5762 6.42571 21.5036 6.352L17.6478 2.496C17.5741 2.42343 17.4906 2.3615 17.3998 2.312ZM19.1997 17.4H15.1999C15.0408 17.4 14.8882 17.3368 14.7757 17.2243C14.6632 17.1117 14.6 16.9591 14.6 16.8C14.6 16.6409 14.6632 16.4883 14.7757 16.3757C14.8882 16.2632 15.0408 16.2 15.1999 16.2H19.1997C19.3589 16.2 19.5115 16.2632 19.624 16.3757C19.7365 16.4883 19.7997 16.6409 19.7997 16.8C19.7997 16.9591 19.7365 17.1117 19.624 17.2243C19.5115 17.3368 19.3589 17.4 19.1997 17.4ZM6.00034 16.2C5.846 16.1882 5.70241 16.1164 5.60036 16C5.50198 15.89 5.44758 15.7476 5.44758 15.6C5.44758 15.4524 5.50198 15.31 5.60036 15.2L6.62431 14.176V12C6.62431 11.8409 6.68753 11.6883 6.80004 11.5757C6.91256 11.4632 7.06516 11.4 7.22429 11.4C7.38341 11.4 7.53602 11.4632 7.64853 11.5757C7.76105 11.6883 7.82426 11.8409 7.82426 12V14.4C7.82412 14.5591 7.76082 14.7116 7.64827 14.824L6.40032 16C6.29827 16.1164 6.15469 16.1882 6.00034 16.2ZM19.1997 14.2H15.9999C15.8408 14.2 15.6882 14.1368 15.5756 14.0243C15.4631 13.9117 15.3999 13.7591 15.3999 13.6C15.3999 13.4409 15.4631 13.2883 15.5756 13.1757C15.6882 13.0632 15.8408 13 15.9999 13H19.1997C19.3589 13 19.5115 13.0632 19.624 13.1757C19.7365 13.2883 19.7997 13.4409 19.7997 13.6C19.7997 13.7591 19.7365 13.9117 19.624 14.0243C19.5115 14.1368 19.3589 14.2 19.1997 14.2ZM19.1997 11H15.1999C15.0408 11 14.8882 10.9368 14.7757 10.8243C14.6632 10.7117 14.6 10.5591 14.6 10.4C14.6 10.2409 14.6632 10.0883 14.7757 9.97574C14.8882 9.86322 15.0408 9.8 15.1999 9.8H19.1997C19.3589 9.8 19.5115 9.86322 19.624 9.97574C19.7365 10.0883 19.7997 10.2409 19.7997 10.4C19.7997 10.5591 19.7365 10.7117 19.624 10.8243C19.5115 10.9368 19.3589 11 19.1997 11ZM13.6 7.8H11.2001C11.041 7.8 10.8884 7.73679 10.7759 7.62427C10.6633 7.51174 10.6001 7.35913 10.6001 7.2C10.6001 7.04087 10.6633 6.88826 10.7759 6.77574C10.8884 6.66322 11.041 6.6 11.2001 6.6H13.6C13.7591 6.6 13.9117 6.66322 14.0242 6.77574C14.1368 6.88826 14.2 7.04087 14.2 7.2C14.2 7.35913 14.1368 7.51174 14.0242 7.62427C13.9117 7.73679 13.7591 7.8 13.6 7.8Z" fill="black" stroke="#7D879C" stroke-width="3" mask="url(#path-1-inside-1_1537_1171)"/>
</svg>
